<svg xmlns="http://www.w3.org/2000/svg" xmlns:xlink="http://www.w3.org/1999/xlink" contentStyleType="text/css" data-diagram-type="CLASS" height="195px" preserveAspectRatio="none" style="width:639px;height:195px;background:#FFFFFF;" version="1.1" viewBox="0 0 639 195" width="639px" zoomAndPan="magnify"><defs/><g><!--class Life--><g class="entity" data-entity="Life" data-source-line="1" data-uid="ent0002" id="entity_Life"><rect fill="#F1F1F1" height="178.375" rx="2.5" ry="2.5" style="stroke:#181818;stroke-width:0.5;" width="328.5176" x="7" y="10"/><ellipse cx="148.728" cy="26" fill="#ADD1B2" rx="11" ry="11" style="stroke:#181818;stroke-width:1;"/><path d="M151.6968,31.6406 Q151.1187,31.9375 150.478,32.0781 Q149.8374,32.2344 149.1343,32.2344 Q146.6343,32.2344 145.3062,30.5938 Q143.9937,28.9375 143.9937,25.8125 Q143.9937,22.6875 145.3062,21.0313 Q146.6343,19.375 149.1343,19.375 Q149.8374,19.375 150.478,19.5313 Q151.1343,19.6875 151.6968,19.9844 L151.6968,22.7031 Q151.0718,22.125 150.478,21.8594 Q149.8843,21.5781 149.2593,21.5781 Q147.9155,21.5781 147.228,22.6563 Q146.5405,23.7188 146.5405,25.8125 Q146.5405,27.9063 147.228,28.9844 Q147.9155,30.0469 149.2593,30.0469 Q149.8843,30.0469 150.478,29.7813 Q151.0718,29.5 151.6968,28.9219 L151.6968,31.6406 Z " fill="#000000"/><text fill="#000000" font-family="sans-serif" font-size="14" lengthAdjust="spacing" textLength="25.2314" x="169.228" y="30.8467">Life</text><rect fill="#FFFFFF" height="15.9688" style="stroke:#181818;stroke-width:1;stroke-dasharray:2.0,2.0;" width="9.3301" x="329.1875" y="7"/><text fill="#000000" font-family="sans-serif" font-size="12" font-style="italic" lengthAdjust="spacing" textLength="7.3301" x="330.1875" y="19.1387">T</text><line style="stroke:#181818;stroke-width:0.5;" x1="8" x2="334.5176" y1="42" y2="42"/><rect fill="none" height="6" style="stroke:#C82930;stroke-width:1;" width="6" x="15" y="52.6484"/><text fill="#000000" font-family="sans-serif" font-size="14" lengthAdjust="spacing" textLength="221.6963" x="27" y="58.9951">vector&lt;vector&lt;T&gt;&gt; _prev_grid</text><rect fill="none" height="6" style="stroke:#C82930;stroke-width:1;" width="6" x="15" y="68.9453"/><text fill="#000000" font-family="sans-serif" font-size="14" lengthAdjust="spacing" textLength="221.416" x="27" y="75.292">vector&lt;vector&lt;T&gt;&gt; _next_grid</text><rect fill="none" height="6" style="stroke:#C82930;stroke-width:1;" width="6" x="15" y="85.2422"/><text fill="#000000" font-family="sans-serif" font-size="14" lengthAdjust="spacing" textLength="84.1504" x="27" y="91.5889">size_t _rows</text><rect fill="none" height="6" style="stroke:#C82930;stroke-width:1;" width="6" x="15" y="101.5391"/><text fill="#000000" font-family="sans-serif" font-size="14" lengthAdjust="spacing" textLength="78.5313" x="27" y="107.8857">size_t _cols</text><line style="stroke:#181818;stroke-width:0.5;" x1="8" x2="334.5176" y1="115.1875" y2="115.1875"/><ellipse cx="18" cy="128.8359" fill="#84BE84" rx="3" ry="3" style="stroke:#038048;stroke-width:1;"/><text fill="#000000" font-family="sans-serif" font-size="14" lengthAdjust="spacing" textLength="193.7373" x="27" y="132.1826">Life(size_t rows, size_t cols)</text><ellipse cx="18" cy="145.1328" fill="#84BE84" rx="3" ry="3" style="stroke:#038048;stroke-width:1;"/><text fill="#000000" font-family="sans-serif" font-size="14" lengthAdjust="spacing" textLength="83.5352" x="27" y="148.4795">eval() : void</text><ellipse cx="18" cy="161.4297" fill="#84BE84" rx="3" ry="3" style="stroke:#038048;stroke-width:1;"/><text fill="#000000" font-family="sans-serif" font-size="14" lengthAdjust="spacing" textLength="302.5176" x="27" y="164.7764">initialize_cell(size_t, size_t, const T&amp;) : void</text><ellipse cx="18" cy="177.7266" fill="#84BE84" rx="3" ry="3" style="stroke:#038048;stroke-width:1;"/><text fill="#000000" font-family="sans-serif" font-size="14" lengthAdjust="spacing" textLength="188.4531" x="27" y="181.0732">print_generation(int) : void</text></g><!--class FredkinCell--><g class="entity" data-entity="FredkinCell" data-source-line="1" data-uid="ent0003" id="entity_FredkinCell"><rect fill="#F1F1F1" height="162.0781" rx="2.5" ry="2.5" style="stroke:#181818;stroke-width:0.5;" width="261.9492" x="370.28" y="18.15"/><ellipse cx="457.8313" cy="34.15" fill="#ADD1B2" rx="11" ry="11" style="stroke:#181818;stroke-width:1;"/><path d="M460.8,39.7906 Q460.2219,40.0875 459.5813,40.2281 Q458.9406,40.3844 458.2375,40.3844 Q455.7375,40.3844 454.4094,38.7438 Q453.0969,37.0875 453.0969,33.9625 Q453.0969,30.8375 454.4094,29.1813 Q455.7375,27.525 458.2375,27.525 Q458.9406,27.525 459.5813,27.6813 Q460.2375,27.8375 460.8,28.1344 L460.8,30.8531 Q460.175,30.275 459.5813,30.0094 Q458.9875,29.7281 458.3625,29.7281 Q457.0188,29.7281 456.3313,30.8063 Q455.6438,31.8688 455.6438,33.9625 Q455.6438,36.0563 456.3313,37.1344 Q457.0188,38.1969 458.3625,38.1969 Q458.9875,38.1969 459.5813,37.9313 Q460.175,37.65 460.8,37.0719 L460.8,39.7906 Z " fill="#000000"/><text fill="#000000" font-family="sans-serif" font-size="14" lengthAdjust="spacing" textLength="78.3467" x="478.3313" y="38.9967">FredkinCell</text><line style="stroke:#181818;stroke-width:0.5;" x1="371.28" x2="631.2292" y1="50.15" y2="50.15"/><rect fill="none" height="6" style="stroke:#C82930;stroke-width:1;" width="6" x="378.28" y="60.7984"/><text fill="#000000" font-family="sans-serif" font-size="14" lengthAdjust="spacing" textLength="74.6143" x="390.28" y="67.1451">bool _alive</text><rect fill="none" height="6" style="stroke:#C82930;stroke-width:1;" width="6" x="378.28" y="77.0953"/><text fill="#000000" font-family="sans-serif" font-size="14" lengthAdjust="spacing" textLength="77.1641" x="390.28" y="83.442">size_t _age</text><line style="stroke:#181818;stroke-width:0.5;" x1="371.28" x2="631.2292" y1="90.7438" y2="90.7438"/><ellipse cx="381.28" cy="104.3922" fill="#84BE84" rx="3" ry="3" style="stroke:#038048;stroke-width:1;"/><text fill="#000000" font-family="sans-serif" font-size="14" lengthAdjust="spacing" textLength="235.9492" x="390.28" y="107.7389">FredkinCell(bool alive, size_t age)</text><ellipse cx="381.28" cy="120.6891" fill="#84BE84" rx="3" ry="3" style="stroke:#038048;stroke-width:1;"/><text fill="#000000" font-family="sans-serif" font-size="14" lengthAdjust="spacing" textLength="118.6719" x="390.28" y="124.0357">evolve(int) : void</text><ellipse cx="381.28" cy="136.9859" fill="#84BE84" rx="3" ry="3" style="stroke:#038048;stroke-width:1;"/><text fill="#000000" font-family="sans-serif" font-size="14" lengthAdjust="spacing" textLength="180.3799" x="390.28" y="140.3326">is_neighbor(int, int) : bool</text><ellipse cx="381.28" cy="153.2828" fill="#84BE84" rx="3" ry="3" style="stroke:#038048;stroke-width:1;"/><text fill="#000000" font-family="sans-serif" font-size="14" lengthAdjust="spacing" textLength="105.1572" x="390.28" y="156.6295">display() : char</text><ellipse cx="381.28" cy="169.5797" fill="#84BE84" rx="3" ry="3" style="stroke:#038048;stroke-width:1;"/><text fill="#000000" font-family="sans-serif" font-size="14" lengthAdjust="spacing" textLength="158.5117" x="390.28" y="172.9264">should_mutate() : bool</text></g><!--reverse link Life to FredkinCell--><g class="link" data-entity-1="Life" data-entity-2="FredkinCell" data-source-line="1" data-uid="lnk4" id="link_Life_FredkinCell"><path codeLine="1" d="M347.94,99.19 C359.24,99.19 358.54,99.19 369.84,99.19" fill="none" id="Life-backto-FredkinCell" style="stroke:#181818;stroke-width:1;"/><polygon fill="#181818" points="335.94,99.19,341.94,103.19,347.94,99.19,341.94,95.19,335.94,99.19" style="stroke:#181818;stroke-width:1;"/><text fill="#000000" font-family="sans-serif" font-size="13" lengthAdjust="spacing" textLength="6.5" x="355.6643" y="95.804">*</text></g><!--SRC=[TP31RiCW38RlUGghXobjqnUOgbmcxTHZxeWIBx76S0IKhftwxeECP5caSK7Ots_p_oTwGzWTOBFRmAl5zftC2sfT54fBv-0KsyUcXgy2uZb0GENP7lFLr3M8mM8GdQNsVyJWfryYZkueF0ZBLxSgATO_fVsukyprH5OJb9XjXZ18NMxX6GBdyNiWGvwaJh2ANlACILv5lN4UcgULRB1auZVHe9MUs9JnEIEFAP55I7CgPsOD8cuCkB8ZEypJ5xfov4TyzXJ1Nqki0_xPddsvc2Hr_PbjwbQGaJGk8osvGSlRc8ZgfSrbr_D5j-BZugN7SjOylW40]--></g></svg>