<svg xmlns="http://www.w3.org/2000/svg" xmlns:xlink="http://www.w3.org/1999/xlink" contentStyleType="text/css" data-diagram-type="CLASS" height="606px" preserveAspectRatio="none" style="width:711px;height:606px;background:#FFFFFF;" version="1.1" viewBox="0 0 711 606" width="711px" zoomAndPan="magnify"><defs/><g><!--class Life--><g class="entity" data-entity="Life" data-source-line="1" data-uid="ent0002" id="entity_Life"><rect fill="#F1F1F1" height="178.375" rx="2.5" ry="2.5" style="stroke:#181818;stroke-width:0.5;" width="328.5176" x="7" y="10"/><ellipse cx="148.728" cy="26" fill="#ADD1B2" rx="11" ry="11" style="stroke:#181818;stroke-width:1;"/><path d="M151.6968,31.6406 Q151.1187,31.9375 150.478,32.0781 Q149.8374,32.2344 149.1343,32.2344 Q146.6343,32.2344 145.3062,30.5938 Q143.9937,28.9375 143.9937,25.8125 Q143.9937,22.6875 145.3062,21.0313 Q146.6343,19.375 149.1343,19.375 Q149.8374,19.375 150.478,19.5313 Q151.1343,19.6875 151.6968,19.9844 L151.6968,22.7031 Q151.0718,22.125 150.478,21.8594 Q149.8843,21.5781 149.2593,21.5781 Q147.9155,21.5781 147.228,22.6563 Q146.5405,23.7188 146.5405,25.8125 Q146.5405,27.9063 147.228,28.9844 Q147.9155,30.0469 149.2593,30.0469 Q149.8843,30.0469 150.478,29.7813 Q151.0718,29.5 151.6968,28.9219 L151.6968,31.6406 Z " fill="#000000"/><text fill="#000000" font-family="sans-serif" font-size="14" lengthAdjust="spacing" textLength="25.2314" x="169.228" y="30.8467">Life</text><rect fill="#FFFFFF" height="15.9688" style="stroke:#181818;stroke-width:1;stroke-dasharray:2.0,2.0;" width="9.3301" x="329.1875" y="7"/><text fill="#000000" font-family="sans-serif" font-size="12" font-style="italic" lengthAdjust="spacing" textLength="7.3301" x="330.1875" y="19.1387">T</text><line style="stroke:#181818;stroke-width:0.5;" x1="8" x2="334.5176" y1="42" y2="42"/><rect fill="none" height="6" style="stroke:#C82930;stroke-width:1;" width="6" x="15" y="52.6484"/><text fill="#000000" font-family="sans-serif" font-size="14" lengthAdjust="spacing" textLength="221.6963" x="27" y="58.9951">vector&lt;vector&lt;T&gt;&gt; _prev_grid</text><rect fill="none" height="6" style="stroke:#C82930;stroke-width:1;" width="6" x="15" y="68.9453"/><text fill="#000000" font-family="sans-serif" font-size="14" lengthAdjust="spacing" textLength="221.416" x="27" y="75.292">vector&lt;vector&lt;T&gt;&gt; _next_grid</text><rect fill="none" height="6" style="stroke:#C82930;stroke-width:1;" width="6" x="15" y="85.2422"/><text fill="#000000" font-family="sans-serif" font-size="14" lengthAdjust="spacing" textLength="84.1504" x="27" y="91.5889">size_t _rows</text><rect fill="none" height="6" style="stroke:#C82930;stroke-width:1;" width="6" x="15" y="101.5391"/><text fill="#000000" font-family="sans-serif" font-size="14" lengthAdjust="spacing" textLength="78.5313" x="27" y="107.8857">size_t _cols</text><line style="stroke:#181818;stroke-width:0.5;" x1="8" x2="334.5176" y1="115.1875" y2="115.1875"/><ellipse cx="18" cy="128.8359" fill="#84BE84" rx="3" ry="3" style="stroke:#038048;stroke-width:1;"/><text fill="#000000" font-family="sans-serif" font-size="14" lengthAdjust="spacing" textLength="193.7373" x="27" y="132.1826">Life(size_t rows, size_t cols)</text><ellipse cx="18" cy="145.1328" fill="#84BE84" rx="3" ry="3" style="stroke:#038048;stroke-width:1;"/><text fill="#000000" font-family="sans-serif" font-size="14" lengthAdjust="spacing" textLength="83.5352" x="27" y="148.4795">eval() : void</text><ellipse cx="18" cy="161.4297" fill="#84BE84" rx="3" ry="3" style="stroke:#038048;stroke-width:1;"/><text fill="#000000" font-family="sans-serif" font-size="14" lengthAdjust="spacing" textLength="302.5176" x="27" y="164.7764">initialize_cell(size_t, size_t, const T&amp;) : void</text><ellipse cx="18" cy="177.7266" fill="#84BE84" rx="3" ry="3" style="stroke:#038048;stroke-width:1;"/><text fill="#000000" font-family="sans-serif" font-size="14" lengthAdjust="spacing" textLength="188.4531" x="27" y="181.0732">print_generation(int) : void</text></g><!--class Cell--><g class="entity" data-entity="Cell" data-source-line="1" data-uid="ent0003" id="entity_Cell"><rect fill="#F1F1F1" height="178.375" rx="2.5" ry="2.5" style="stroke:#181818;stroke-width:0.5;" width="219.4844" x="370.52" y="10"/><ellipse cx="462.9282" cy="26" fill="#ADD1B2" rx="11" ry="11" style="stroke:#181818;stroke-width:1;"/><path d="M465.897,31.6406 Q465.3188,31.9375 464.6782,32.0781 Q464.0376,32.2344 463.3345,32.2344 Q460.8345,32.2344 459.5063,30.5938 Q458.1938,28.9375 458.1938,25.8125 Q458.1938,22.6875 459.5063,21.0313 Q460.8345,19.375 463.3345,19.375 Q464.0376,19.375 464.6782,19.5313 Q465.3345,19.6875 465.897,19.9844 L465.897,22.7031 Q465.272,22.125 464.6782,21.8594 Q464.0845,21.5781 463.4595,21.5781 Q462.1157,21.5781 461.4282,22.6563 Q460.7407,23.7188 460.7407,25.8125 Q460.7407,27.9063 461.4282,28.9844 Q462.1157,30.0469 463.4595,30.0469 Q464.0845,30.0469 464.6782,29.7813 Q465.272,29.5 465.897,28.9219 L465.897,31.6406 Z " fill="#000000"/><text fill="#000000" font-family="sans-serif" font-size="14" lengthAdjust="spacing" textLength="26.168" x="483.4282" y="30.8467">Cell</text><line style="stroke:#181818;stroke-width:0.5;" x1="371.52" x2="589.0044" y1="42" y2="42"/><rect fill="none" height="6" style="stroke:#C82930;stroke-width:1;" width="6" x="378.52" y="52.6484"/><text fill="#000000" font-family="sans-serif" font-size="14" lengthAdjust="spacing" textLength="112.2734" x="390.52" y="58.9951">AbstractCell* _p</text><line style="stroke:#181818;stroke-width:0.5;" x1="371.52" x2="589.0044" y1="66.2969" y2="66.2969"/><ellipse cx="381.52" cy="79.9453" fill="#84BE84" rx="3" ry="3" style="stroke:#038048;stroke-width:1;"/><text fill="#000000" font-family="sans-serif" font-size="14" lengthAdjust="spacing" textLength="37.0918" x="390.52" y="83.292">Cell()</text><ellipse cx="381.52" cy="96.2422" fill="#84BE84" rx="3" ry="3" style="stroke:#038048;stroke-width:1;"/><text fill="#000000" font-family="sans-serif" font-size="14" lengthAdjust="spacing" textLength="129.0283" x="390.52" y="99.5889">Cell(AbstractCell*)</text><ellipse cx="381.52" cy="112.5391" fill="#84BE84" rx="3" ry="3" style="stroke:#038048;stroke-width:1;"/><text fill="#000000" font-family="sans-serif" font-size="14" lengthAdjust="spacing" textLength="118.6719" x="390.52" y="115.8857">evolve(int) : void</text><ellipse cx="381.52" cy="128.8359" fill="#84BE84" rx="3" ry="3" style="stroke:#038048;stroke-width:1;"/><text fill="#000000" font-family="sans-serif" font-size="14" lengthAdjust="spacing" textLength="180.3799" x="390.52" y="132.1826">is_neighbor(int, int) : bool</text><ellipse cx="381.52" cy="145.1328" fill="#84BE84" rx="3" ry="3" style="stroke:#038048;stroke-width:1;"/><text fill="#000000" font-family="sans-serif" font-size="14" lengthAdjust="spacing" textLength="193.4844" x="390.52" y="148.4795">update_neighbors(...) : void</text><ellipse cx="381.52" cy="161.4297" fill="#84BE84" rx="3" ry="3" style="stroke:#038048;stroke-width:1;"/><text fill="#000000" font-family="sans-serif" font-size="14" lengthAdjust="spacing" textLength="105.1572" x="390.52" y="164.7764">display() : char</text><ellipse cx="381.52" cy="177.7266" fill="#84BE84" rx="3" ry="3" style="stroke:#038048;stroke-width:1;"/><text fill="#000000" font-family="sans-serif" font-size="14" lengthAdjust="spacing" textLength="88.3477" x="390.52" y="181.0732">clone() : Cell</text></g><!--class AbstractCell--><g class="entity" data-entity="AbstractCell" data-source-line="2" data-uid="ent0005" id="entity_AbstractCell"><rect fill="#F1F1F1" height="145.7813" rx="2.5" ry="2.5" style="stroke:#181818;stroke-width:0.5;" width="206.3799" x="377.07" y="248.38"/><ellipse cx="433.5417" cy="264.38" fill="#A9DCDF" rx="11" ry="11" style="stroke:#181818;stroke-width:1;"/><path d="M433.6511,259.7238 L432.4948,264.8019 L434.8229,264.8019 L433.6511,259.7238 Z M432.1667,257.4894 L435.1511,257.4894 L438.5104,269.88 L436.0573,269.88 L435.2917,266.8175 L432.0104,266.8175 L431.2604,269.88 L428.8229,269.88 L432.1667,257.4894 Z " fill="#000000"/><text fill="#000000" font-family="sans-serif" font-size="14" font-style="italic" lengthAdjust="spacing" textLength="84.9365" x="454.0417" y="269.2267">AbstractCell</text><line style="stroke:#181818;stroke-width:0.5;" x1="378.07" x2="582.4499" y1="280.38" y2="280.38"/><rect fill="none" height="6" style="stroke:#C82930;stroke-width:1;" width="6" x="385.07" y="291.0284"/><text fill="#000000" font-family="sans-serif" font-size="14" lengthAdjust="spacing" textLength="74.6143" x="397.07" y="297.3751">bool _alive</text><line style="stroke:#181818;stroke-width:0.5;" x1="378.07" x2="582.4499" y1="304.6769" y2="304.6769"/><ellipse cx="388.07" cy="318.3253" fill="#84BE84" rx="3" ry="3" style="stroke:#038048;stroke-width:1;"/><text fill="#000000" font-family="sans-serif" font-size="14" lengthAdjust="spacing" textLength="154.1162" x="397.07" y="321.672">clone() : AbstractCell*</text><ellipse cx="388.07" cy="334.6222" fill="#84BE84" rx="3" ry="3" style="stroke:#038048;stroke-width:1;"/><text fill="#000000" font-family="sans-serif" font-size="14" lengthAdjust="spacing" textLength="118.6719" x="397.07" y="337.9689">evolve(int) : void</text><ellipse cx="388.07" cy="350.9191" fill="#84BE84" rx="3" ry="3" style="stroke:#038048;stroke-width:1;"/><text fill="#000000" font-family="sans-serif" font-size="14" lengthAdjust="spacing" textLength="180.3799" x="397.07" y="354.2657">is_neighbor(int, int) : bool</text><ellipse cx="388.07" cy="367.2159" fill="#84BE84" rx="3" ry="3" style="stroke:#038048;stroke-width:1;"/><text fill="#000000" font-family="sans-serif" font-size="14" lengthAdjust="spacing" textLength="105.1572" x="397.07" y="370.5626">display() : char</text><ellipse cx="388.07" cy="383.5128" fill="#84BE84" rx="3" ry="3" style="stroke:#038048;stroke-width:1;"/><text fill="#000000" font-family="sans-serif" font-size="14" lengthAdjust="spacing" textLength="158.5117" x="397.07" y="386.8595">should_mutate() : bool</text></g><!--class FredkinCell--><g class="entity" data-entity="FredkinCell" data-source-line="3" data-uid="ent0007" id="entity_FredkinCell"><rect fill="#F1F1F1" height="145.7813" rx="2.5" ry="2.5" style="stroke:#181818;stroke-width:0.5;" width="206.3799" x="257.07" y="454.16"/><ellipse cx="316.8366" cy="470.16" fill="#ADD1B2" rx="11" ry="11" style="stroke:#181818;stroke-width:1;"/><path d="M319.8054,475.8006 Q319.2272,476.0975 318.5866,476.2381 Q317.946,476.3944 317.2429,476.3944 Q314.7429,476.3944 313.4147,474.7538 Q312.1022,473.0975 312.1022,469.9725 Q312.1022,466.8475 313.4147,465.1913 Q314.7429,463.535 317.2429,463.535 Q317.946,463.535 318.5866,463.6913 Q319.2429,463.8475 319.8054,464.1444 L319.8054,466.8631 Q319.1804,466.285 318.5866,466.0194 Q317.9929,465.7381 317.3679,465.7381 Q316.0241,465.7381 315.3366,466.8163 Q314.6491,467.8788 314.6491,469.9725 Q314.6491,472.0663 315.3366,473.1444 Q316.0241,474.2069 317.3679,474.2069 Q317.9929,474.2069 318.5866,473.9413 Q319.1804,473.66 319.8054,473.0819 L319.8054,475.8006 Z " fill="#000000"/><text fill="#000000" font-family="sans-serif" font-size="14" lengthAdjust="spacing" textLength="78.3467" x="337.3366" y="475.0067">FredkinCell</text><line style="stroke:#181818;stroke-width:0.5;" x1="258.07" x2="462.4499" y1="486.16" y2="486.16"/><rect fill="none" height="6" style="stroke:#C82930;stroke-width:1;" width="6" x="265.07" y="496.8084"/><text fill="#000000" font-family="sans-serif" font-size="14" lengthAdjust="spacing" textLength="77.1641" x="277.07" y="503.1551">size_t _age</text><line style="stroke:#181818;stroke-width:0.5;" x1="258.07" x2="462.4499" y1="510.4569" y2="510.4569"/><ellipse cx="268.07" cy="524.1053" fill="#84BE84" rx="3" ry="3" style="stroke:#038048;stroke-width:1;"/><text fill="#000000" font-family="sans-serif" font-size="14" lengthAdjust="spacing" textLength="167.7129" x="277.07" y="527.452">FredkinCell(bool, size_t)</text><ellipse cx="268.07" cy="540.4022" fill="#84BE84" rx="3" ry="3" style="stroke:#038048;stroke-width:1;"/><text fill="#000000" font-family="sans-serif" font-size="14" lengthAdjust="spacing" textLength="118.6719" x="277.07" y="543.7489">evolve(int) : void</text><ellipse cx="268.07" cy="556.6991" fill="#84BE84" rx="3" ry="3" style="stroke:#038048;stroke-width:1;"/><text fill="#000000" font-family="sans-serif" font-size="14" lengthAdjust="spacing" textLength="180.3799" x="277.07" y="560.0457">is_neighbor(int, int) : bool</text><ellipse cx="268.07" cy="572.9959" fill="#84BE84" rx="3" ry="3" style="stroke:#038048;stroke-width:1;"/><text fill="#000000" font-family="sans-serif" font-size="14" lengthAdjust="spacing" textLength="105.1572" x="277.07" y="576.3426">display() : char</text><ellipse cx="268.07" cy="589.2928" fill="#84BE84" rx="3" ry="3" style="stroke:#038048;stroke-width:1;"/><text fill="#000000" font-family="sans-serif" font-size="14" lengthAdjust="spacing" textLength="158.5117" x="277.07" y="592.6395">should_mutate() : bool</text></g><!--class ConwayCell--><g class="entity" data-entity="ConwayCell" data-source-line="4" data-uid="ent0009" id="entity_ConwayCell"><rect fill="#F1F1F1" height="113.1875" rx="2.5" ry="2.5" style="stroke:#181818;stroke-width:0.5;" width="206.3799" x="498.07" y="470.46"/><ellipse cx="556.1618" cy="486.46" fill="#ADD1B2" rx="11" ry="11" style="stroke:#181818;stroke-width:1;"/><path d="M559.1305,492.1006 Q558.5524,492.3975 557.9118,492.5381 Q557.2712,492.6944 556.568,492.6944 Q554.068,492.6944 552.7399,491.0538 Q551.4274,489.3975 551.4274,486.2725 Q551.4274,483.1475 552.7399,481.4913 Q554.068,479.835 556.568,479.835 Q557.2712,479.835 557.9118,479.9913 Q558.568,480.1475 559.1305,480.4444 L559.1305,483.1631 Q558.5055,482.585 557.9118,482.3194 Q557.318,482.0381 556.693,482.0381 Q555.3493,482.0381 554.6618,483.1163 Q553.9743,484.1788 553.9743,486.2725 Q553.9743,488.3663 554.6618,489.4444 Q555.3493,490.5069 556.693,490.5069 Q557.318,490.5069 557.9118,490.2413 Q558.5055,489.96 559.1305,489.3819 L559.1305,492.1006 Z " fill="#000000"/><text fill="#000000" font-family="sans-serif" font-size="14" lengthAdjust="spacing" textLength="81.6963" x="576.6618" y="491.3067">ConwayCell</text><line style="stroke:#181818;stroke-width:0.5;" x1="499.07" x2="703.4499" y1="502.46" y2="502.46"/><line style="stroke:#181818;stroke-width:0.5;" x1="499.07" x2="703.4499" y1="510.46" y2="510.46"/><ellipse cx="509.07" cy="524.1084" fill="#84BE84" rx="3" ry="3" style="stroke:#038048;stroke-width:1;"/><text fill="#000000" font-family="sans-serif" font-size="14" lengthAdjust="spacing" textLength="122.5273" x="518.07" y="527.4551">ConwayCell(bool)</text><ellipse cx="509.07" cy="540.4053" fill="#84BE84" rx="3" ry="3" style="stroke:#038048;stroke-width:1;"/><text fill="#000000" font-family="sans-serif" font-size="14" lengthAdjust="spacing" textLength="118.6719" x="518.07" y="543.752">evolve(int) : void</text><ellipse cx="509.07" cy="556.7022" fill="#84BE84" rx="3" ry="3" style="stroke:#038048;stroke-width:1;"/><text fill="#000000" font-family="sans-serif" font-size="14" lengthAdjust="spacing" textLength="180.3799" x="518.07" y="560.0489">is_neighbor(int, int) : bool</text><ellipse cx="509.07" cy="572.9991" fill="#84BE84" rx="3" ry="3" style="stroke:#038048;stroke-width:1;"/><text fill="#000000" font-family="sans-serif" font-size="14" lengthAdjust="spacing" textLength="105.1572" x="518.07" y="576.3457">display() : char</text></g><!--reverse link Life to Cell--><g class="link" data-entity-1="Life" data-entity-2="Cell" data-source-line="1" data-uid="lnk4" id="link_Life_Cell"><path codeLine="1" d="M347.72,99.19 C359.2,99.19 358.68,99.19 370.16,99.19" fill="none" id="Life-backto-Cell" style="stroke:#181818;stroke-width:1;"/><polygon fill="#181818" points="335.72,99.19,341.72,103.19,347.72,99.19,341.72,95.19,335.72,99.19" style="stroke:#181818;stroke-width:1;"/><text fill="#000000" font-family="sans-serif" font-size="13" lengthAdjust="spacing" textLength="6.5" x="355.8724" y="95.7112">*</text></g><!--reverse link Cell to AbstractCell--><g class="link" data-entity-1="Cell" data-entity-2="AbstractCell" data-source-line="2" data-uid="lnk6" id="link_Cell_AbstractCell"><path codeLine="2" d="M480.26,200.75 C480.26,220.46 480.26,229.12 480.26,248.08" fill="none" id="Cell-backto-AbstractCell" style="stroke:#181818;stroke-width:1;"/><polygon fill="#181818" points="480.26,188.75,476.26,194.75,480.26,200.75,484.26,194.75,480.26,188.75" style="stroke:#181818;stroke-width:1;"/><text fill="#000000" font-family="sans-serif" font-size="13" lengthAdjust="spacing" textLength="8.271" x="471.8796" y="237.2104">1</text></g><!--reverse link AbstractCell to FredkinCell--><g class="link" data-entity-1="AbstractCell" data-entity-2="FredkinCell" data-source-line="3" data-uid="lnk8" id="link_AbstractCell_FredkinCell"><path codeLine="3" d="M428.6522,409.914 C417.3322,429.154 414.22,434.42 402.88,453.67" fill="none" id="AbstractCell-backto-FredkinCell" style="stroke:#181818;stroke-width:1;"/><polygon fill="none" points="437.78,394.4,423.4809,406.8714,433.8236,412.9566,437.78,394.4" style="stroke:#181818;stroke-width:1;"/></g><!--reverse link AbstractCell to ConwayCell--><g class="link" data-entity-1="AbstractCell" data-entity-2="ConwayCell" data-source-line="4" data-uid="lnk10" id="link_AbstractCell_ConwayCell"><path codeLine="4" d="M532.2775,409.8787 C547.0275,434.7287 554.13,446.68 568,470.04" fill="none" id="AbstractCell-backto-ConwayCell" style="stroke:#181818;stroke-width:1;"/><polygon fill="none" points="523.09,394.4,527.118,412.9412,537.4371,406.8162,523.09,394.4" style="stroke:#181818;stroke-width:1;"/></g><!--SRC=[nLDDRy8m3BtpAomEKygNjEk4a2QadJXohqBhGRGigP9GnZR- -voGb9I9soPwQENdP_iz9rs9LuJH58QZ8InHoe5_4K38un2UDzOPNhcGoGEOVnFbnM3z9jIDx5Ah0p-6vA2It5fOqR3vUW5V0w1d2YrMJfjv_AmN2oWRWssvDQA-JL7uuNAA5PzOEYYDFjWhgDBo38t3R1PnpvmaakSKaOGjbwo09sXrR3y6eOGJN7foHLvYZrG-eNfb7QmVhieQ8nJ9H8M6Ew4Lex2ZdD96mhRIEl8LZcWLiPCFMP47FU95kvOjziP40vPM9hQxZJO-Eu58sMWj8sNVrDnXHxDiDfjTTQc5RIG_XkrKEsuYN4cjC83XeCaOZ-BWxB1tBv9JFnfAMcgBl_hqpFs1jnl2xKxlPLs-xnqvPrrDTpBPtUvafsl5jqbsncA-FbsBudx2BxzTr3tEe23oNyITVW00]--></g></svg>