<svg xmlns="http://www.w3.org/2000/svg" xmlns:xlink="http://www.w3.org/1999/xlink" contentStyleType="text/css" data-diagram-type="CLASS" height="195px" preserveAspectRatio="none" style="width:583px;height:195px;background:#FFFFFF;" version="1.1" viewBox="0 0 583 195" width="583px" zoomAndPan="magnify"><defs/><g><!--class Life--><g class="entity" data-entity="Life" data-source-line="1" data-uid="ent0002" id="entity_Life"><rect fill="#F1F1F1" height="178.375" rx="2.5" ry="2.5" style="stroke:#181818;stroke-width:0.5;" width="328.5176" x="7" y="10"/><ellipse cx="148.728" cy="26" fill="#ADD1B2" rx="11" ry="11" style="stroke:#181818;stroke-width:1;"/><path d="M151.6968,31.6406 Q151.1187,31.9375 150.478,32.0781 Q149.8374,32.2344 149.1343,32.2344 Q146.6343,32.2344 145.3062,30.5938 Q143.9937,28.9375 143.9937,25.8125 Q143.9937,22.6875 145.3062,21.0313 Q146.6343,19.375 149.1343,19.375 Q149.8374,19.375 150.478,19.5313 Q151.1343,19.6875 151.6968,19.9844 L151.6968,22.7031 Q151.0718,22.125 150.478,21.8594 Q149.8843,21.5781 149.2593,21.5781 Q147.9155,21.5781 147.228,22.6563 Q146.5405,23.7188 146.5405,25.8125 Q146.5405,27.9063 147.228,28.9844 Q147.9155,30.0469 149.2593,30.0469 Q149.8843,30.0469 150.478,29.7813 Q151.0718,29.5 151.6968,28.9219 L151.6968,31.6406 Z " fill="#000000"/><text fill="#000000" font-family="sans-serif" font-size="14" lengthAdjust="spacing" textLength="25.2314" x="169.228" y="30.8467">Life</text><rect fill="#FFFFFF" height="15.9688" style="stroke:#181818;stroke-width:1;stroke-dasharray:2.0,2.0;" width="9.3301" x="329.1875" y="7"/><text fill="#000000" font-family="sans-serif" font-size="12" font-style="italic" lengthAdjust="spacing" textLength="7.3301" x="330.1875" y="19.1387">T</text><line style="stroke:#181818;stroke-width:0.5;" x1="8" x2="334.5176" y1="42" y2="42"/><rect fill="none" height="6" style="stroke:#C82930;stroke-width:1;" width="6" x="15" y="52.6484"/><text fill="#000000" font-family="sans-serif" font-size="14" lengthAdjust="spacing" textLength="221.6963" x="27" y="58.9951">vector&lt;vector&lt;T&gt;&gt; _prev_grid</text><rect fill="none" height="6" style="stroke:#C82930;stroke-width:1;" width="6" x="15" y="68.9453"/><text fill="#000000" font-family="sans-serif" font-size="14" lengthAdjust="spacing" textLength="221.416" x="27" y="75.292">vector&lt;vector&lt;T&gt;&gt; _next_grid</text><rect fill="none" height="6" style="stroke:#C82930;stroke-width:1;" width="6" x="15" y="85.2422"/><text fill="#000000" font-family="sans-serif" font-size="14" lengthAdjust="spacing" textLength="84.1504" x="27" y="91.5889">size_t _rows</text><rect fill="none" height="6" style="stroke:#C82930;stroke-width:1;" width="6" x="15" y="101.5391"/><text fill="#000000" font-family="sans-serif" font-size="14" lengthAdjust="spacing" textLength="78.5313" x="27" y="107.8857">size_t _cols</text><line style="stroke:#181818;stroke-width:0.5;" x1="8" x2="334.5176" y1="115.1875" y2="115.1875"/><ellipse cx="18" cy="128.8359" fill="#84BE84" rx="3" ry="3" style="stroke:#038048;stroke-width:1;"/><text fill="#000000" font-family="sans-serif" font-size="14" lengthAdjust="spacing" textLength="193.7373" x="27" y="132.1826">Life(size_t rows, size_t cols)</text><ellipse cx="18" cy="145.1328" fill="#84BE84" rx="3" ry="3" style="stroke:#038048;stroke-width:1;"/><text fill="#000000" font-family="sans-serif" font-size="14" lengthAdjust="spacing" textLength="83.5352" x="27" y="148.4795">eval() : void</text><ellipse cx="18" cy="161.4297" fill="#84BE84" rx="3" ry="3" style="stroke:#038048;stroke-width:1;"/><text fill="#000000" font-family="sans-serif" font-size="14" lengthAdjust="spacing" textLength="302.5176" x="27" y="164.7764">initialize_cell(size_t, size_t, const T&amp;) : void</text><ellipse cx="18" cy="177.7266" fill="#84BE84" rx="3" ry="3" style="stroke:#038048;stroke-width:1;"/><text fill="#000000" font-family="sans-serif" font-size="14" lengthAdjust="spacing" textLength="188.4531" x="27" y="181.0732">print_generation(int) : void</text></g><!--class ConwayCell--><g class="entity" data-entity="ConwayCell" data-source-line="1" data-uid="ent0003" id="entity_ConwayCell"><rect fill="#F1F1F1" height="129.4844" rx="2.5" ry="2.5" style="stroke:#181818;stroke-width:0.5;" width="206.3799" x="370.07" y="34.45"/><ellipse cx="428.1618" cy="50.45" fill="#ADD1B2" rx="11" ry="11" style="stroke:#181818;stroke-width:1;"/><path d="M431.1305,56.0906 Q430.5524,56.3875 429.9118,56.5281 Q429.2712,56.6844 428.568,56.6844 Q426.068,56.6844 424.7399,55.0437 Q423.4274,53.3875 423.4274,50.2625 Q423.4274,47.1375 424.7399,45.4812 Q426.068,43.825 428.568,43.825 Q429.2712,43.825 429.9118,43.9812 Q430.568,44.1375 431.1305,44.4344 L431.1305,47.1531 Q430.5055,46.575 429.9118,46.3094 Q429.318,46.0281 428.693,46.0281 Q427.3493,46.0281 426.6618,47.1062 Q425.9743,48.1687 425.9743,50.2625 Q425.9743,52.3562 426.6618,53.4344 Q427.3493,54.4969 428.693,54.4969 Q429.318,54.4969 429.9118,54.2312 Q430.5055,53.95 431.1305,53.3719 L431.1305,56.0906 Z " fill="#000000"/><text fill="#000000" font-family="sans-serif" font-size="14" lengthAdjust="spacing" textLength="81.6963" x="448.6618" y="55.2967">ConwayCell</text><line style="stroke:#181818;stroke-width:0.5;" x1="371.07" x2="575.4499" y1="66.45" y2="66.45"/><rect fill="none" height="6" style="stroke:#C82930;stroke-width:1;" width="6" x="378.07" y="77.0984"/><text fill="#000000" font-family="sans-serif" font-size="14" lengthAdjust="spacing" textLength="74.6143" x="390.07" y="83.4451">bool _alive</text><line style="stroke:#181818;stroke-width:0.5;" x1="371.07" x2="575.4499" y1="90.7469" y2="90.7469"/><ellipse cx="381.07" cy="104.3953" fill="#84BE84" rx="3" ry="3" style="stroke:#038048;stroke-width:1;"/><text fill="#000000" font-family="sans-serif" font-size="14" lengthAdjust="spacing" textLength="160.2344" x="390.07" y="107.742">ConwayCell(bool alive)</text><ellipse cx="381.07" cy="120.6922" fill="#84BE84" rx="3" ry="3" style="stroke:#038048;stroke-width:1;"/><text fill="#000000" font-family="sans-serif" font-size="14" lengthAdjust="spacing" textLength="118.6719" x="390.07" y="124.0389">evolve(int) : void</text><ellipse cx="381.07" cy="136.9891" fill="#84BE84" rx="3" ry="3" style="stroke:#038048;stroke-width:1;"/><text fill="#000000" font-family="sans-serif" font-size="14" lengthAdjust="spacing" textLength="180.3799" x="390.07" y="140.3357">is_neighbor(int, int) : bool</text><ellipse cx="381.07" cy="153.2859" fill="#84BE84" rx="3" ry="3" style="stroke:#038048;stroke-width:1;"/><text fill="#000000" font-family="sans-serif" font-size="14" lengthAdjust="spacing" textLength="105.1572" x="390.07" y="156.6326">display() : char</text></g><!--reverse link Life to ConwayCell--><g class="link" data-entity-1="Life" data-entity-2="ConwayCell" data-source-line="1" data-uid="lnk4" id="link_Life_ConwayCell"><path codeLine="1" d="M347.83,99.19 C359.1,99.19 358.37,99.19 369.65,99.19" fill="none" id="Life-backto-ConwayCell" style="stroke:#181818;stroke-width:1;"/><polygon fill="#181818" points="335.83,99.19,341.83,103.19,347.83,99.19,341.83,95.19,335.83,99.19" style="stroke:#181818;stroke-width:1;"/><text fill="#000000" font-family="sans-serif" font-size="13" lengthAdjust="spacing" textLength="6.5" x="355.5068" y="95.6876">*</text></g><!--SRC=[TP1DZi8m38NtFON50XKe5nYXRjYox3uAmO0bAwwIAFo9kvEKbCuWJJPH_3u_Esz7HuJb6cRB6Mp5NlHjYynLPLXx3xkaRheM7XMaiuQ89eZRbAjhMr2zmwXEZWx_8nQluJVYwOugW79oyLyb8_mkhORPTQbdiXcXp2mAX55plO0VY5BiLq2M0cdEi4b_AHvZUvFwhG_GpR_QUaSshOaMdGuajaxF3_8S4vao-eIo5s5GQM34OZL1zI0EshIoSCG_xcLldvAYqtalBgiD52HR5EH0lcTz6tvipjfLpnS0]--></g></svg>